<svg viewBox="0 0 32 17" xmlns="http://www.w3.org/2000/svg"><path d="m0 0h32v17h-32z" fill="none"/><path d="m8.2923 17h23.7077v-17h-23.7077l-8.0252 8.5z" fill="#009949"/><path d="m24.9167 0h7.0833v17h-7.0833z" fill="#fff"/><g fill="#231f20"><path d="m30.348 5.1436c.0264.0732.0425.1318.0488.1748.0068.043-.002.0752-.0259.0967s-.0664.0352-.127.04c-.061.0049-.1445.0078-.251.0078-.1104 0-.1968-.002-.2588-.0049s-.1089-.0088-.1416-.0186c-.0327-.0088-.0552-.0215-.0684-.0381s-.0239-.0381-.0327-.0645l-.2832-.7979h-1.583l-.2666.7764c-.0088.0283-.0205.0527-.0342.0723-.0142.0195-.0371.0352-.0688.0459-.0312.0107-.0757.0186-.1333.0234-.0576.0039-.1328.0059-.2266.0059-.0996 0-.1777-.0029-.2344-.0098-.0562-.0059-.0957-.0205-.1172-.0439s-.0293-.0566-.0229-.0996c.0068-.043.0229-.1006.0488-.1719l1.2998-3.5244c.0127-.0342.0278-.0625.0454-.084s.0449-.0381.083-.0488c.0381-.0117.0908-.0186.1582-.0215.0669-.0039.1562-.0049.2671-.0049.1279 0 .23.001.3057.0049.0762.0029.1353.0098.1777.0215.0425.0107.0728.0273.0913.0498.0181.0225.0342.0537.0469.0928l1.3027 3.5205zm-1.9341-2.9131h-.0034l-.5962 1.6885h1.1953z"/><path d="m30.1727 12.1465c0 .0596-.0029.1113-.0083.1543s-.0132.0771-.0229.1025-.0215.043-.0356.0537c-.0142.0098-.0308.0156-.0503.0156-.0283 0-.0742-.0186-.1372-.0557s-.1465-.0771-.2505-.1201c-.1045-.043-.2285-.082-.373-.1191s-.312-.0557-.5029-.0557c-.2041 0-.3887.0332-.5537.0996-.165.0674-.3062.1611-.4233.2832-.1172.1211-.2075.2676-.2705.4385s-.0942.3594-.0942.5664c0 .2275.0317.4268.0957.6006.0645.1729.1538.3174.269.4336.1147.1172.2534.2051.415.2646.1616.0586.3403.0889.5356.0889.0957 0 .1899-.0107.2837-.0312.0933-.0205.1802-.0508.2603-.0918v-.9209h-.7979c-.0391 0-.0693-.0225-.0913-.0693-.0215-.0459-.0322-.124-.0322-.2344 0-.0576.0024-.1055.0078-.1445s.0137-.0703.0244-.0938.0239-.041.0391-.0518c.0151-.0117.0327-.0166.0522-.0166h1.4233c.0347 0 .0654.0049.0928.0166.0269.0107.0508.0283.0718.0508.0205.0225.0361.0498.0469.0811.0107.0322.0166.0684.0166.1094v1.5801c0 .0615-.0117.1152-.0342.1611-.0229.0469-.0698.083-.1401.1094-.0708.0264-.1582.0547-.2622.083-.1045.0283-.2124.0527-.3242.0732s-.2246.0361-.3384.0459c-.1143.0107-.2285.0156-.3438.0156-.3364 0-.6377-.0459-.9038-.1367s-.4912-.2227-.6758-.3955-.3257-.3838-.4233-.6328c-.0977-.248-.1465-.5303-.1465-.8457 0-.3252.0522-.6172.1562-.876s.252-.4785.4429-.6602c.1909-.1807.4219-.3193.6919-.416.2705-.0957.5718-.1436.9038-.1436.1826 0 .3486.0117.4985.0352s.2803.0518.3921.0859c.1118.0332.2051.0693.2788.1084s.1255.0732.1548.1016.0503.0693.0635.1211c.0127.0527.0195.1299.0195.2314z"/><path d="m29.655 7.9462c-.1241.122-.3246.122-.4487 0l-.4296-.4193v2.7004c0 .1752-.1432.3129-.3183.3129s-.3183-.1377-.3183-.3129v-2.6941l-.4296.4224c-.0605.0595-.1432.0907-.2228.0907s-.1623-.0313-.226-.0907c-.1241-.1252-.1241-.3223 0-.4443l.9325-.9137s.0095-.0094.0127-.0156l.0573-.0563s.0095-.0094.0159-.0125c.0509-.0344.1114-.0532.1782-.0532.0891 0 .1655.0344.226.0907l.9707.9544c.1241.122.1241.3192 0 .4412z"/></g><path d="m21.8802 13.5352c.0723.2158.1172.3867.1357.5117.0176.126-.0059.2207-.0723.2842-.0664.0625-.1836.1016-.3516.1162-.1689.0146-.3994.0225-.6943.0225-.3066 0-.5449-.0039-.7168-.0137-.1709-.0088-.3018-.0264-.3916-.0537-.0908-.0264-.1533-.0645-.1895-.1123s-.0664-.1104-.0908-.1885l-.7842-2.3379h-4.3809l-.7393 2.2744c-.0244.084-.0557.1543-.0947.2119-.0391.0566-.1025.1016-.1895.1348-.0869.0322-.2109.0547-.3696.0674-.1597.0117-.3682.0176-.6265.0176-.2766 0-.4929-.0088-.6492-.0264-.1565-.0186-.2646-.0615-.3245-.1309-.0603-.0684-.0813-.166-.0632-.292s.0632-.2939.1353-.5039l3.5969-10.3232c.0361-.1016.0781-.1846.126-.2471.0488-.0635.125-.1113.2305-.1445.1045-.0322.251-.0537.4365-.0625.1865-.0088.4336-.0137.7393-.0137.3555 0 .6377.0049.8477.0137.2109.0088.374.0303.4912.0625.1172.0332.2012.083.2529.1484.0508.0664.0947.1562.1309.2705l3.6055 10.3145zm-5.3544-8.5342h-.0088l-1.6504 4.9453h3.3086z" fill="#fff" stroke="#231f20" stroke-miterlimit="10" stroke-width=".1771"/><path d="m31.8229.1771v16.6458h-23.4542l-7.858-8.3229 7.858-8.3229zm.1771-.1771h-23.7077l-8.0252 8.5 8.0252 8.5h23.7077z" fill="#231f20"/></svg>